External Loads File
version=1
nRows=95
nColumns=13
Range=5.000000e-03-10 seconds
endheader
time 	forceRightX 	forceRightY 	forceRightZ 	pointRightX 	pointRightY 	pointRightZ 	forceLeftX 	forceLeftY 	forceLeftZ 	pointLeftX 	pointLeftY 	pointLeftZ 		
0.005000 26.347074 90.983287 -0.000000 0.351011 0.415725 -0.162715 26.134376 125.539413 -0.000000 0.062967 0.236682 -0.397681
0.010000 26.759438 91.486907 -0.000000 0.350999 0.415759 -0.162723 24.404736 124.494075 -0.000000 0.062978 0.236607 -0.397679
0.015000 27.166580 91.943535 -0.000000 0.350990 0.415803 -0.162725 22.788054 123.495851 -0.000000 0.062987 0.236573 -0.397673
0.020000 27.565391 92.326142 -0.000000 0.350989 0.415808 -0.162727 21.439534 122.634128 -0.000000 0.062990 0.236549 -0.397669
0.025000 27.848974 92.659550 -0.000000 0.350963 0.416183 -0.162717 20.265116 121.963243 -0.000000 0.062972 0.236511 -0.397717
0.030000 28.178950 92.890973 -0.000000 0.350956 0.416245 -0.162713 19.431296 121.413064 -0.000000 0.062975 0.236506 -0.397733
0.035000 28.469149 93.041912 -0.000000 0.350962 0.416260 -0.162724 18.770868 120.960246 -0.000000 0.062975 0.236499 -0.397747
0.040000 28.686202 93.121379 -0.000000 0.350978 0.416289 -0.162741 18.249280 120.603602 -0.000000 0.062976 0.236503 -0.397745
0.045000 28.822986 93.130933 -0.000000 0.350986 0.416268 -0.162740 17.920529 120.361304 -0.000000 0.062977 0.236523 -0.397743
0.050000 28.849032 93.082237 -0.000000 0.350992 0.416259 -0.162737 17.795026 120.247651 -0.000000 0.062981 0.236543 -0.397746
0.055000 28.780825 92.988882 -0.000000 0.350998 0.416263 -0.162741 17.869367 120.249864 -0.000000 0.062989 0.236571 -0.397735
0.060000 28.663983 92.877597 -0.000000 0.351015 0.416246 -0.162744 18.106336 120.342025 -0.000000 0.062992 0.236590 -0.397739
0.065000 28.545701 92.780949 -0.000000 0.351024 0.416224 -0.162748 18.436302 120.486928 -0.000000 0.062993 0.236652 -0.397743
0.070000 28.439819 92.727832 -0.000000 0.351041 0.416186 -0.162742 18.742384 120.632518 -0.000000 0.062988 0.236690 -0.397755
0.075000 28.356725 92.727800 -0.000000 0.351047 0.416136 -0.162741 18.944243 120.729360 -0.000000 0.062992 0.236731 -0.397756
0.080000 28.305938 92.775801 -0.000000 0.351073 0.416064 -0.162752 19.053173 120.776221 -0.000000 0.062991 0.236762 -0.397771
0.085000 28.288800 92.860372 -0.000000 0.351090 0.416010 -0.162756 19.154938 120.822874 -0.000000 0.062986 0.236840 -0.397780
0.090000 28.303251 92.962586 -0.000000 0.351121 0.415895 -0.162747 19.330129 120.909944 -0.000000 0.062968 0.236885 -0.397774
0.095000 28.328475 93.063063 -0.000000 0.351141 0.415821 -0.162748 19.553123 121.023250 -0.000000 0.062946 0.236982 -0.397788
0.100000 28.356469 93.143352 -0.000000 0.351177 0.415737 -0.162743 19.744322 121.105448 -0.000000 0.062922 0.237046 -0.397772
0.105000 28.399491 93.189860 -0.000000 0.351218 0.415650 -0.162742 19.864916 121.112953 -0.000000 0.062901 0.237132 -0.397778
0.110000 28.463983 93.191180 -0.000000 0.351252 0.415514 -0.162739 19.947913 121.056733 -0.000000 0.062868 0.237229 -0.397774
0.115000 28.524699 93.135970 -0.000000 0.351296 0.415384 -0.162724 20.050782 120.993111 -0.000000 0.062825 0.237329 -0.397765
0.120000 28.645502 92.984865 -0.000000 0.351353 0.414914 -0.162733 20.349583 120.958395 -0.000000 0.062789 0.237422 -0.397751
0.125000 28.677846 92.777406 -0.000000 0.351412 0.414749 -0.162755 20.695968 121.008847 -0.000000 0.062733 0.237544 -0.397735
0.130000 28.664739 92.510537 -0.000000 0.351469 0.414645 -0.162742 21.120035 121.126975 -0.000000 0.062686 0.237658 -0.397747
0.135000 28.627572 92.203468 -0.000000 0.351534 0.414546 -0.162754 21.546035 121.264318 -0.000000 0.062642 0.237757 -0.397735
0.140000 28.584927 91.893295 -0.000000 0.351605 0.414461 -0.162750 21.843717 121.349872 -0.000000 0.062602 0.237857 -0.397741
0.145000 28.563598 91.617239 -0.000000 0.351653 0.414358 -0.162748 21.935396 121.330382 -0.000000 0.062564 0.237977 -0.397765
0.150000 28.551758 91.405342 -0.000000 0.351707 0.414269 -0.162755 21.822449 121.224097 -0.000000 0.062535 0.238057 -0.397765
0.155000 28.579081 91.256706 -0.000000 0.351757 0.414188 -0.162756 21.662684 121.092625 -0.000000 0.062499 0.238208 -0.397773
0.160000 28.612770 91.189436 -0.000000 0.351796 0.414109 -0.162758 21.506137 120.999804 -0.000000 0.062486 0.238269 -0.397773
0.165000 28.705173 91.200526 -0.000000 0.351826 0.414035 -0.162755 21.405607 120.924800 -0.000000 0.062455 0.238389 -0.397771
0.170000 28.844162 91.297596 -0.000000 0.351852 0.413951 -0.162747 21.265493 120.821089 -0.000000 0.062435 0.238493 -0.397770
0.175000 29.020422 91.459144 -0.000000 0.351883 0.413853 -0.162741 21.045484 120.660032 -0.000000 0.062422 0.238572 -0.397779
0.180000 29.205608 91.649514 -0.000000 0.351912 0.413800 -0.162734 20.772978 120.462656 -0.000000 0.062403 0.238649 -0.397761
0.185000 29.404462 91.821727 -0.000000 0.351924 0.413711 -0.162729 20.555099 120.265507 -0.000000 0.062378 0.238758 -0.397772
0.190000 29.562082 91.944184 -0.000000 0.351947 0.413638 -0.162736 20.402381 120.100557 -0.000000 0.062362 0.238827 -0.397784
0.195000 29.637249 91.973866 -0.000000 0.351965 0.413587 -0.162738 20.318884 119.961497 -0.000000 0.062347 0.238883 -0.397764
0.200000 29.602478 91.876676 -0.000000 0.351994 0.413501 -0.162733 20.290647 119.815988 -0.000000 0.062334 0.238931 -0.397766
0.205000 29.424212 91.653205 -0.000000 0.352021 0.413459 -0.162741 20.235274 119.627477 -0.000000 0.062323 0.238987 -0.397756
0.210000 29.121285 91.318081 -0.000000 0.352046 0.413413 -0.162732 20.101119 119.362274 -0.000000 0.062313 0.239029 -0.397767
0.215000 28.740397 90.899272 -0.000000 0.352078 0.413356 -0.162743 19.907021 119.026098 -0.000000 0.062297 0.239069 -0.397764
0.220000 28.334260 90.438720 -0.000000 0.352115 0.413333 -0.162761 19.744417 118.685996 -0.000000 0.062283 0.239117 -0.397761
0.225000 27.976230 89.971483 -0.000000 0.352149 0.413288 -0.162753 19.737041 118.422879 -0.000000 0.062275 0.239132 -0.397781
0.230000 27.712088 89.514726 -0.000000 0.352175 0.413262 -0.162761 19.910748 118.265629 -0.000000 0.062266 0.239161 -0.397790
0.235000 27.538731 89.063745 -0.000000 0.352213 0.413241 -0.162770 20.189910 118.181864 -0.000000 0.062263 0.239196 -0.397792
0.240000 27.403992 88.610942 -0.000000 0.352236 0.413241 -0.162764 20.473936 118.136155 -0.000000 0.062263 0.239197 -0.397797
0.245000 27.292185 88.147315 -0.000000 0.352262 0.413232 -0.162776 20.771190 118.116209 -0.000000 0.062269 0.239191 -0.397800
0.250000 27.187923 87.685570 -0.000000 0.352283 0.413257 -0.162770 21.098301 118.130739 -0.000000 0.062269 0.239189 -0.397792
0.255000 27.110132 87.247358 -0.000000 0.352306 0.413281 -0.162783 21.471708 118.175483 -0.000000 0.062272 0.239183 -0.397790
0.260000 27.070673 86.868585 -0.000000 0.352324 0.413317 -0.162781 21.853037 118.240052 -0.000000 0.062288 0.239151 -0.397790
0.265000 27.095666 86.578758 -0.000000 0.352320 0.413351 -0.162764 22.207671 118.301774 -0.000000 0.062313 0.239117 -0.397785
0.270000 27.192222 86.398882 -0.000000 0.352315 0.413410 -0.162767 22.466423 118.318605 -0.000000 0.062334 0.239076 -0.397791
0.275000 27.356657 86.333440 -0.000000 0.352282 0.413465 -0.162753 22.558619 118.240574 -0.000000 0.062357 0.239019 -0.397791
0.280000 27.578027 86.368821 -0.000000 0.352257 0.413539 -0.162738 22.482036 118.062133 -0.000000 0.062398 0.238964 -0.397791
0.285000 27.830653 86.486939 -0.000000 0.352223 0.413631 -0.162740 22.298653 117.839114 -0.000000 0.062452 0.238869 -0.397779
0.290000 28.124970 86.659015 -0.000000 0.352199 0.413721 -0.162725 22.115249 117.619063 -0.000000 0.062484 0.238789 -0.397792
0.295000 28.424021 86.867521 -0.000000 0.352158 0.413819 -0.162714 21.908345 117.417650 -0.000000 0.062543 0.238666 -0.397795
0.300000 28.743133 87.075954 -0.000000 0.352108 0.413919 -0.162720 21.688543 117.217279 -0.000000 0.062599 0.238577 -0.397793
0.305000 29.061090 87.270273 -0.000000 0.352060 0.414049 -0.162712 21.435637 117.031788 -0.000000 0.062650 0.238410 -0.397781
0.310000 29.428626 87.418575 -0.000000 0.352002 0.414141 -0.162715 21.272241 116.876023 -0.000000 0.062707 0.238305 -0.397789
0.315000 29.789103 87.512584 -0.000000 0.351954 0.414246 -0.162708 21.218148 116.776223 -0.000000 0.062770 0.238170 -0.397800
0.320000 30.100448 87.527382 -0.000000 0.351894 0.414345 -0.162707 21.310636 116.726569 -0.000000 0.062833 0.238062 -0.397795
0.325000 30.308682 87.456026 -0.000000 0.351844 0.414462 -0.162712 21.501239 116.709610 -0.000000 0.062891 0.237933 -0.397814
0.330000 30.433375 87.301854 -0.000000 0.351796 0.414560 -0.162706 21.746345 116.687428 -0.000000 0.062941 0.237828 -0.397823
0.335000 30.479405 87.096661 -0.000000 0.351762 0.414677 -0.162729 21.950558 116.626673 -0.000000 0.062985 0.237703 -0.397820
0.340000 30.462591 86.860821 -0.000000 0.351725 0.414789 -0.162737 22.083599 116.505359 -0.000000 0.063022 0.237577 -0.397817
0.345000 30.367121 86.608928 -0.000000 0.351685 0.414963 -0.162736 22.137684 116.337952 -0.000000 0.063068 0.237461 -0.397816
0.350000 30.134381 86.368523 -0.000000 0.351646 0.415506 -0.162749 22.058229 116.166763 -0.000000 0.063109 0.237350 -0.397806
0.355000 29.949635 86.092472 -0.000000 0.351598 0.415654 -0.162746 22.070919 115.958827 -0.000000 0.063146 0.237230 -0.397821
0.360000 29.760957 85.824221 -0.000000 0.351557 0.415803 -0.162740 22.032032 115.718618 -0.000000 0.063204 0.237124 -0.397811
0.365000 29.607459 85.571328 -0.000000 0.351510 0.415940 -0.162750 21.936504 115.432666 -0.000000 0.063245 0.237031 -0.397816
0.370000 29.502753 85.345027 -0.000000 0.351463 0.416067 -0.162753 21.817942 115.133289 -0.000000 0.063285 0.236897 -0.397812
0.375000 29.467116 85.152912 -0.000000 0.351411 0.416224 -0.162729 21.766656 114.878757 -0.000000 0.063333 0.236783 -0.397830
0.380000 29.508950 84.993499 -0.000000 0.351366 0.416332 -0.162730 21.848263 114.712460 -0.000000 0.063380 0.236646 -0.397821
0.385000 29.599231 84.851872 -0.000000 0.351312 0.416425 -0.162740 22.058089 114.650652 -0.000000 0.063424 0.236530 -0.397824
0.390000 29.676296 84.711391 -0.000000 0.351265 0.416538 -0.162734 22.345443 114.701072 -0.000000 0.063463 0.236384 -0.397817
0.395000 29.723674 84.559074 -0.000000 0.351212 0.416643 -0.162738 22.697767 114.851373 -0.000000 0.063499 0.236267 -0.397813
0.400000 29.728533 84.416999 -0.000000 0.351154 0.416753 -0.162731 23.033302 115.062460 -0.000000 0.063538 0.236157 -0.397817
0.405000 29.710487 84.319355 -0.000000 0.351072 0.416837 -0.162710 23.249108 115.264946 -0.000000 0.063583 0.236029 -0.397809
0.410000 29.695048 84.300630 -0.000000 0.350984 0.416953 -0.162673 23.273489 115.410668 -0.000000 0.063621 0.235885 -0.397788
0.415000 29.731449 84.374026 -0.000000 0.350888 0.417066 -0.162670 23.163478 115.497662 -0.000000 0.063666 0.235779 -0.397794
0.420000 29.811788 84.546528 -0.000000 0.350794 0.417209 -0.162654 22.975768 115.559714 -0.000000 0.063713 0.235648 -0.397787
0.425000 29.918571 84.797701 -0.000000 0.350711 0.417383 -0.162652 22.754568 115.596749 -0.000000 0.063767 0.235518 -0.397799
0.430000 30.020617 85.093067 -0.000000 0.350628 0.417530 -0.162649 22.487325 115.574857 -0.000000 0.063806 0.235397 -0.397805
0.435000 30.070255 85.400862 -0.000000 0.350554 0.417671 -0.162655 22.132681 115.480468 -0.000000 0.063846 0.235269 -0.397820
0.440000 30.060030 85.680019 -0.000000 0.350486 0.417809 -0.162667 21.728105 115.337193 -0.000000 0.063889 0.235172 -0.397824
0.445000 29.986262 85.897859 -0.000000 0.350424 0.417923 -0.162680 21.327807 115.195389 -0.000000 0.063920 0.235042 -0.397821
0.450000 29.806702 86.052326 -0.000000 0.350109 0.418119 -0.162506 20.921774 115.110667 -0.000000 0.063962 0.234929 -0.397816
0.455000 29.644788 86.106588 -0.000000 0.350059 0.418214 -0.162521 20.701337 115.082786 -0.000000 0.063993 0.234808 -0.397834
0.460000 29.463416 86.096908 -0.000000 0.350010 0.418290 -0.162521 20.619245 115.132189 -0.000000 0.064035 0.234700 -0.397821
0.465000 29.263928 86.051698 -0.000000 0.349968 0.418394 -0.162531 20.626799 115.237859 -0.000000 0.064076 0.234567 -0.397803
0.470000 29.071145 85.987526 -0.000000 0.349926 0.418491 -0.162544 20.638514 115.336466 -0.000000 0.064113 0.234417 -0.397802
0.475000 28.908912 85.910304 -0.000000 0.349882 0.418587 -0.162543 20.570566 115.364975 -0.000000 0.064160 0.234311 -0.397802
